<mxfile host="app.diagrams.net" modified="2024-07-26T06:30:29.844Z" agent="Mozilla/5.0 (Macintosh; Intel Mac OS X 10_15_7) AppleWebKit/537.36 (KHTML, like Gecko) Chrome/126.0.0.0 Safari/537.36" etag="sSLBxI1fE4zL1_VGzRx8" version="24.6.4" type="github" pages="4">
  <diagram name="基础RAG方案" id="oLb7fWgWq3iVa96zjCT5">
    <mxGraphModel dx="1834" dy="676" grid="0" gridSize="10" guides="1" tooltips="1" connect="1" arrows="1" fold="1" page="0" pageScale="1" pageWidth="827" pageHeight="1169" math="0" shadow="0">
      <root>
        <mxCell id="0" />
        <mxCell id="1" parent="0" />
        <mxCell id="9xEkt8Czb-LR7FJkZuXn-3" style="edgeStyle=orthogonalEdgeStyle;rounded=0;orthogonalLoop=1;jettySize=auto;html=1;entryX=0;entryY=0.5;entryDx=0;entryDy=0;" edge="1" parent="1" source="9xEkt8Czb-LR7FJkZuXn-1" target="9xEkt8Czb-LR7FJkZuXn-2">
          <mxGeometry relative="1" as="geometry" />
        </mxCell>
        <mxCell id="9xEkt8Czb-LR7FJkZuXn-28" value="解析" style="edgeLabel;html=1;align=center;verticalAlign=middle;resizable=0;points=[];" vertex="1" connectable="0" parent="9xEkt8Czb-LR7FJkZuXn-3">
          <mxGeometry x="0.0164" relative="1" as="geometry">
            <mxPoint x="-4" y="-10" as="offset" />
          </mxGeometry>
        </mxCell>
        <mxCell id="9xEkt8Czb-LR7FJkZuXn-1" value="文档" style="rounded=1;whiteSpace=wrap;html=1;fillColor=#ffe6cc;strokeColor=#d79b00;" vertex="1" parent="1">
          <mxGeometry x="-96" y="164" width="86" height="41" as="geometry" />
        </mxCell>
        <mxCell id="9xEkt8Czb-LR7FJkZuXn-5" style="edgeStyle=orthogonalEdgeStyle;rounded=0;orthogonalLoop=1;jettySize=auto;html=1;entryX=0;entryY=0.5;entryDx=0;entryDy=0;" edge="1" parent="1" source="9xEkt8Czb-LR7FJkZuXn-2" target="9xEkt8Czb-LR7FJkZuXn-4">
          <mxGeometry relative="1" as="geometry" />
        </mxCell>
        <mxCell id="9xEkt8Czb-LR7FJkZuXn-29" value="切分" style="edgeLabel;html=1;align=center;verticalAlign=middle;resizable=0;points=[];" vertex="1" connectable="0" parent="9xEkt8Czb-LR7FJkZuXn-5">
          <mxGeometry x="-0.1475" relative="1" as="geometry">
            <mxPoint x="-1" y="-10" as="offset" />
          </mxGeometry>
        </mxCell>
        <mxCell id="9xEkt8Czb-LR7FJkZuXn-2" value="文本" style="rounded=1;whiteSpace=wrap;html=1;fillColor=#ffe6cc;strokeColor=#d79b00;" vertex="1" parent="1">
          <mxGeometry x="51" y="164" width="86" height="41" as="geometry" />
        </mxCell>
        <mxCell id="9xEkt8Czb-LR7FJkZuXn-4" value="chunks" style="rounded=1;whiteSpace=wrap;html=1;fillColor=#ffe6cc;strokeColor=#d79b00;" vertex="1" parent="1">
          <mxGeometry x="198" y="164" width="86" height="41" as="geometry" />
        </mxCell>
        <mxCell id="9xEkt8Czb-LR7FJkZuXn-17" style="edgeStyle=orthogonalEdgeStyle;rounded=0;orthogonalLoop=1;jettySize=auto;html=1;entryX=1;entryY=0.5;entryDx=0;entryDy=0;exitX=0.5;exitY=1;exitDx=0;exitDy=0;exitPerimeter=0;" edge="1" parent="1" source="9xEkt8Czb-LR7FJkZuXn-6" target="9xEkt8Czb-LR7FJkZuXn-12">
          <mxGeometry relative="1" as="geometry" />
        </mxCell>
        <mxCell id="9xEkt8Czb-LR7FJkZuXn-33" value="检索" style="edgeLabel;html=1;align=center;verticalAlign=middle;resizable=0;points=[];" vertex="1" connectable="0" parent="9xEkt8Czb-LR7FJkZuXn-17">
          <mxGeometry x="-0.1469" y="1" relative="1" as="geometry">
            <mxPoint x="-62" y="40" as="offset" />
          </mxGeometry>
        </mxCell>
        <mxCell id="9xEkt8Czb-LR7FJkZuXn-6" value="向量&lt;div&gt;数据库&lt;/div&gt;" style="shape=cylinder3;whiteSpace=wrap;html=1;boundedLbl=1;backgroundOutline=1;size=15;fillColor=#f5f5f5;fontColor=#333333;strokeColor=#666666;" vertex="1" parent="1">
          <mxGeometry x="368" y="144.5" width="60" height="80" as="geometry" />
        </mxCell>
        <mxCell id="9xEkt8Czb-LR7FJkZuXn-7" style="edgeStyle=orthogonalEdgeStyle;rounded=0;orthogonalLoop=1;jettySize=auto;html=1;entryX=0;entryY=0.5;entryDx=0;entryDy=0;entryPerimeter=0;" edge="1" parent="1" source="9xEkt8Czb-LR7FJkZuXn-4" target="9xEkt8Czb-LR7FJkZuXn-6">
          <mxGeometry relative="1" as="geometry" />
        </mxCell>
        <mxCell id="9xEkt8Czb-LR7FJkZuXn-30" value="向量化" style="edgeLabel;html=1;align=center;verticalAlign=middle;resizable=0;points=[];" vertex="1" connectable="0" parent="9xEkt8Czb-LR7FJkZuXn-7">
          <mxGeometry x="-0.119" y="1" relative="1" as="geometry">
            <mxPoint x="-1" y="-9" as="offset" />
          </mxGeometry>
        </mxCell>
        <mxCell id="9xEkt8Czb-LR7FJkZuXn-20" style="edgeStyle=orthogonalEdgeStyle;rounded=0;orthogonalLoop=1;jettySize=auto;html=1;entryX=0.5;entryY=0;entryDx=0;entryDy=0;" edge="1" parent="1" source="9xEkt8Czb-LR7FJkZuXn-8" target="9xEkt8Czb-LR7FJkZuXn-11">
          <mxGeometry relative="1" as="geometry" />
        </mxCell>
        <mxCell id="9xEkt8Czb-LR7FJkZuXn-8" value="问题" style="rounded=1;whiteSpace=wrap;html=1;fillColor=#dae8fc;strokeColor=#6c8ebf;" vertex="1" parent="1">
          <mxGeometry x="51" y="270" width="86" height="41" as="geometry" />
        </mxCell>
        <mxCell id="9xEkt8Czb-LR7FJkZuXn-10" style="edgeStyle=orthogonalEdgeStyle;rounded=0;orthogonalLoop=1;jettySize=auto;html=1;entryX=0.5;entryY=1;entryDx=0;entryDy=0;entryPerimeter=0;" edge="1" parent="1" source="9xEkt8Czb-LR7FJkZuXn-8" target="9xEkt8Czb-LR7FJkZuXn-6">
          <mxGeometry relative="1" as="geometry" />
        </mxCell>
        <mxCell id="9xEkt8Czb-LR7FJkZuXn-32" value="向量化" style="edgeLabel;html=1;align=center;verticalAlign=middle;resizable=0;points=[];" vertex="1" connectable="0" parent="9xEkt8Czb-LR7FJkZuXn-10">
          <mxGeometry x="-0.3272" y="1" relative="1" as="geometry">
            <mxPoint x="-6" y="-9" as="offset" />
          </mxGeometry>
        </mxCell>
        <mxCell id="9xEkt8Czb-LR7FJkZuXn-19" style="edgeStyle=orthogonalEdgeStyle;rounded=0;orthogonalLoop=1;jettySize=auto;html=1;entryX=1;entryY=0.5;entryDx=0;entryDy=0;" edge="1" parent="1" source="9xEkt8Czb-LR7FJkZuXn-11" target="9xEkt8Czb-LR7FJkZuXn-15">
          <mxGeometry relative="1" as="geometry" />
        </mxCell>
        <mxCell id="9xEkt8Czb-LR7FJkZuXn-11" value="prompt" style="rounded=1;whiteSpace=wrap;html=1;fillColor=#d5e8d4;strokeColor=#82b366;" vertex="1" parent="1">
          <mxGeometry x="51" y="376" width="86" height="41" as="geometry" />
        </mxCell>
        <mxCell id="9xEkt8Czb-LR7FJkZuXn-18" style="edgeStyle=orthogonalEdgeStyle;rounded=0;orthogonalLoop=1;jettySize=auto;html=1;entryX=1;entryY=0.5;entryDx=0;entryDy=0;" edge="1" parent="1" source="9xEkt8Czb-LR7FJkZuXn-12" target="9xEkt8Czb-LR7FJkZuXn-11">
          <mxGeometry relative="1" as="geometry" />
        </mxCell>
        <mxCell id="9xEkt8Czb-LR7FJkZuXn-12" value="chunks" style="rounded=1;whiteSpace=wrap;html=1;fillColor=#ffe6cc;strokeColor=#d79b00;" vertex="1" parent="1">
          <mxGeometry x="198" y="376" width="86" height="41" as="geometry" />
        </mxCell>
        <mxCell id="9xEkt8Czb-LR7FJkZuXn-22" style="edgeStyle=orthogonalEdgeStyle;rounded=0;orthogonalLoop=1;jettySize=auto;html=1;" edge="1" parent="1" source="9xEkt8Czb-LR7FJkZuXn-15" target="9xEkt8Czb-LR7FJkZuXn-21">
          <mxGeometry relative="1" as="geometry" />
        </mxCell>
        <mxCell id="9xEkt8Czb-LR7FJkZuXn-34" value="回复" style="edgeLabel;html=1;align=center;verticalAlign=middle;resizable=0;points=[];" vertex="1" connectable="0" parent="9xEkt8Czb-LR7FJkZuXn-22">
          <mxGeometry x="0.0469" relative="1" as="geometry">
            <mxPoint x="16" y="2" as="offset" />
          </mxGeometry>
        </mxCell>
        <mxCell id="9xEkt8Czb-LR7FJkZuXn-15" value="LLM" style="rounded=1;whiteSpace=wrap;html=1;fillColor=#d5e8d4;strokeColor=#82b366;" vertex="1" parent="1">
          <mxGeometry x="-99.5" y="376" width="86" height="41" as="geometry" />
        </mxCell>
        <mxCell id="9xEkt8Czb-LR7FJkZuXn-24" style="edgeStyle=orthogonalEdgeStyle;rounded=0;orthogonalLoop=1;jettySize=auto;html=1;entryX=0;entryY=0.5;entryDx=0;entryDy=0;" edge="1" parent="1" source="9xEkt8Czb-LR7FJkZuXn-21" target="9xEkt8Czb-LR7FJkZuXn-8">
          <mxGeometry relative="1" as="geometry" />
        </mxCell>
        <mxCell id="9xEkt8Czb-LR7FJkZuXn-31" value="提问" style="edgeLabel;html=1;align=center;verticalAlign=middle;resizable=0;points=[];" vertex="1" connectable="0" parent="9xEkt8Czb-LR7FJkZuXn-24">
          <mxGeometry x="-0.087" relative="1" as="geometry">
            <mxPoint x="-3" y="-10" as="offset" />
          </mxGeometry>
        </mxCell>
        <mxCell id="9xEkt8Czb-LR7FJkZuXn-21" value="" style="shape=umlActor;verticalLabelPosition=bottom;verticalAlign=top;html=1;outlineConnect=0;" vertex="1" parent="1">
          <mxGeometry x="-72" y="269" width="31" height="43" as="geometry" />
        </mxCell>
        <mxCell id="9xEkt8Czb-LR7FJkZuXn-25" value="" style="endArrow=none;dashed=1;html=1;dashPattern=1 3;strokeWidth=2;rounded=0;" edge="1" parent="1">
          <mxGeometry width="50" height="50" relative="1" as="geometry">
            <mxPoint x="-204" y="242" as="sourcePoint" />
            <mxPoint x="481" y="242" as="targetPoint" />
          </mxGeometry>
        </mxCell>
        <mxCell id="9xEkt8Czb-LR7FJkZuXn-26" value="训练阶段" style="text;html=1;align=center;verticalAlign=middle;resizable=0;points=[];autosize=1;strokeColor=none;fillColor=none;" vertex="1" parent="1">
          <mxGeometry x="-203" y="215" width="66" height="26" as="geometry" />
        </mxCell>
        <mxCell id="9xEkt8Czb-LR7FJkZuXn-27" value="推理阶段" style="text;html=1;align=center;verticalAlign=middle;resizable=0;points=[];autosize=1;strokeColor=none;fillColor=none;" vertex="1" parent="1">
          <mxGeometry x="-203" y="243" width="66" height="26" as="geometry" />
        </mxCell>
      </root>
    </mxGraphModel>
  </diagram>
  <diagram id="lop9ySiqXiCNLZSot4r2" name="优化方案1">
    <mxGraphModel grid="0" page="0" gridSize="10" guides="1" tooltips="1" connect="1" arrows="1" fold="1" pageScale="1" pageWidth="827" pageHeight="1169" math="0" shadow="0">
      <root>
        <mxCell id="0" />
        <mxCell id="1" parent="0" />
        <mxCell id="-JHPAXgp7mCBz7Q-DRIb-1" style="edgeStyle=orthogonalEdgeStyle;rounded=0;orthogonalLoop=1;jettySize=auto;html=1;entryX=0;entryY=0.5;entryDx=0;entryDy=0;" edge="1" parent="1" source="-JHPAXgp7mCBz7Q-DRIb-3" target="-JHPAXgp7mCBz7Q-DRIb-6">
          <mxGeometry relative="1" as="geometry" />
        </mxCell>
        <mxCell id="-JHPAXgp7mCBz7Q-DRIb-2" value="解析" style="edgeLabel;html=1;align=center;verticalAlign=middle;resizable=0;points=[];" vertex="1" connectable="0" parent="-JHPAXgp7mCBz7Q-DRIb-1">
          <mxGeometry x="0.0164" relative="1" as="geometry">
            <mxPoint x="-4" y="-10" as="offset" />
          </mxGeometry>
        </mxCell>
        <mxCell id="-JHPAXgp7mCBz7Q-DRIb-3" value="文档" style="rounded=1;whiteSpace=wrap;html=1;fillColor=#ffe6cc;strokeColor=#d79b00;" vertex="1" parent="1">
          <mxGeometry x="-75" y="-35.5" width="86" height="41" as="geometry" />
        </mxCell>
        <mxCell id="-JHPAXgp7mCBz7Q-DRIb-4" style="edgeStyle=orthogonalEdgeStyle;rounded=0;orthogonalLoop=1;jettySize=auto;html=1;entryX=0;entryY=0.5;entryDx=0;entryDy=0;" edge="1" parent="1" source="-JHPAXgp7mCBz7Q-DRIb-6" target="-JHPAXgp7mCBz7Q-DRIb-7">
          <mxGeometry relative="1" as="geometry" />
        </mxCell>
        <mxCell id="-JHPAXgp7mCBz7Q-DRIb-5" value="切分" style="edgeLabel;html=1;align=center;verticalAlign=middle;resizable=0;points=[];" vertex="1" connectable="0" parent="-JHPAXgp7mCBz7Q-DRIb-4">
          <mxGeometry x="-0.1475" relative="1" as="geometry">
            <mxPoint x="-1" y="-10" as="offset" />
          </mxGeometry>
        </mxCell>
        <mxCell id="-JHPAXgp7mCBz7Q-DRIb-6" value="文本" style="rounded=1;whiteSpace=wrap;html=1;fillColor=#ffe6cc;strokeColor=#d79b00;" vertex="1" parent="1">
          <mxGeometry x="72" y="-35.5" width="86" height="41" as="geometry" />
        </mxCell>
        <mxCell id="-JHPAXgp7mCBz7Q-DRIb-7" value="chunks" style="rounded=1;whiteSpace=wrap;html=1;fillColor=#ffe6cc;strokeColor=#d79b00;" vertex="1" parent="1">
          <mxGeometry x="219" y="-35.5" width="86" height="41" as="geometry" />
        </mxCell>
        <mxCell id="-JHPAXgp7mCBz7Q-DRIb-56" style="edgeStyle=orthogonalEdgeStyle;rounded=0;orthogonalLoop=1;jettySize=auto;html=1;entryX=1;entryY=0.5;entryDx=0;entryDy=0;" edge="1" parent="1" source="-JHPAXgp7mCBz7Q-DRIb-10" target="-JHPAXgp7mCBz7Q-DRIb-20">
          <mxGeometry relative="1" as="geometry">
            <Array as="points">
              <mxPoint x="499" y="-15" />
              <mxPoint x="499" y="277" />
            </Array>
          </mxGeometry>
        </mxCell>
        <mxCell id="-JHPAXgp7mCBz7Q-DRIb-61" value="检索" style="edgeLabel;html=1;align=center;verticalAlign=middle;resizable=0;points=[];" vertex="1" connectable="0" parent="-JHPAXgp7mCBz7Q-DRIb-56">
          <mxGeometry x="0.0383" relative="1" as="geometry">
            <mxPoint x="-20" y="-33" as="offset" />
          </mxGeometry>
        </mxCell>
        <mxCell id="-JHPAXgp7mCBz7Q-DRIb-10" value="向量&lt;div&gt;数据库&lt;/div&gt;" style="shape=cylinder3;whiteSpace=wrap;html=1;boundedLbl=1;backgroundOutline=1;size=15;fillColor=#f5f5f5;fontColor=#333333;strokeColor=#666666;" vertex="1" parent="1">
          <mxGeometry x="389" y="-55" width="60" height="80" as="geometry" />
        </mxCell>
        <mxCell id="-JHPAXgp7mCBz7Q-DRIb-11" style="edgeStyle=orthogonalEdgeStyle;rounded=0;orthogonalLoop=1;jettySize=auto;html=1;entryX=0;entryY=0.5;entryDx=0;entryDy=0;entryPerimeter=0;" edge="1" parent="1" source="-JHPAXgp7mCBz7Q-DRIb-7" target="-JHPAXgp7mCBz7Q-DRIb-10">
          <mxGeometry relative="1" as="geometry" />
        </mxCell>
        <mxCell id="-JHPAXgp7mCBz7Q-DRIb-12" value="向量化" style="edgeLabel;html=1;align=center;verticalAlign=middle;resizable=0;points=[];" vertex="1" connectable="0" parent="-JHPAXgp7mCBz7Q-DRIb-11">
          <mxGeometry x="-0.119" y="1" relative="1" as="geometry">
            <mxPoint x="-1" y="15" as="offset" />
          </mxGeometry>
        </mxCell>
        <mxCell id="-JHPAXgp7mCBz7Q-DRIb-64" style="edgeStyle=orthogonalEdgeStyle;rounded=0;orthogonalLoop=1;jettySize=auto;html=1;entryX=0;entryY=0.5;entryDx=0;entryDy=0;" edge="1" parent="1" source="-JHPAXgp7mCBz7Q-DRIb-14" target="-JHPAXgp7mCBz7Q-DRIb-63">
          <mxGeometry relative="1" as="geometry" />
        </mxCell>
        <mxCell id="-JHPAXgp7mCBz7Q-DRIb-65" value="语义相似性&lt;div&gt;检测&lt;/div&gt;" style="edgeLabel;html=1;align=center;verticalAlign=middle;resizable=0;points=[];" vertex="1" connectable="0" parent="-JHPAXgp7mCBz7Q-DRIb-64">
          <mxGeometry x="-0.1268" y="-1" relative="1" as="geometry">
            <mxPoint x="1" y="-25" as="offset" />
          </mxGeometry>
        </mxCell>
        <mxCell id="-JHPAXgp7mCBz7Q-DRIb-67" style="edgeStyle=orthogonalEdgeStyle;rounded=0;orthogonalLoop=1;jettySize=auto;html=1;exitX=0.5;exitY=1;exitDx=0;exitDy=0;" edge="1" parent="1" source="-JHPAXgp7mCBz7Q-DRIb-14" target="-JHPAXgp7mCBz7Q-DRIb-18">
          <mxGeometry relative="1" as="geometry" />
        </mxCell>
        <mxCell id="-JHPAXgp7mCBz7Q-DRIb-14" value="问题" style="rounded=1;whiteSpace=wrap;html=1;fillColor=#dae8fc;strokeColor=#6c8ebf;" vertex="1" parent="1">
          <mxGeometry x="-89" y="109.5" width="86" height="41" as="geometry" />
        </mxCell>
        <mxCell id="-JHPAXgp7mCBz7Q-DRIb-17" style="edgeStyle=orthogonalEdgeStyle;rounded=0;orthogonalLoop=1;jettySize=auto;html=1;entryX=1;entryY=0.5;entryDx=0;entryDy=0;" edge="1" parent="1" source="-JHPAXgp7mCBz7Q-DRIb-18" target="-JHPAXgp7mCBz7Q-DRIb-23">
          <mxGeometry relative="1" as="geometry" />
        </mxCell>
        <mxCell id="-JHPAXgp7mCBz7Q-DRIb-66" value="prompt压缩&lt;br&gt;prompt优化" style="edgeLabel;html=1;align=center;verticalAlign=middle;resizable=0;points=[];" vertex="1" connectable="0" parent="-JHPAXgp7mCBz7Q-DRIb-17">
          <mxGeometry x="0.0313" y="1" relative="1" as="geometry">
            <mxPoint x="2" y="-29" as="offset" />
          </mxGeometry>
        </mxCell>
        <mxCell id="-JHPAXgp7mCBz7Q-DRIb-18" value="prompt" style="rounded=1;whiteSpace=wrap;html=1;fillColor=#d5e8d4;strokeColor=#82b366;" vertex="1" parent="1">
          <mxGeometry x="44" y="256" width="86" height="41" as="geometry" />
        </mxCell>
        <mxCell id="-JHPAXgp7mCBz7Q-DRIb-51" style="edgeStyle=orthogonalEdgeStyle;rounded=0;orthogonalLoop=1;jettySize=auto;html=1;" edge="1" parent="1" source="-JHPAXgp7mCBz7Q-DRIb-20" target="-JHPAXgp7mCBz7Q-DRIb-49">
          <mxGeometry relative="1" as="geometry" />
        </mxCell>
        <mxCell id="-JHPAXgp7mCBz7Q-DRIb-52" value="重排&lt;br&gt;rerank模型" style="edgeLabel;html=1;align=center;verticalAlign=middle;resizable=0;points=[];" vertex="1" connectable="0" parent="-JHPAXgp7mCBz7Q-DRIb-51">
          <mxGeometry x="0.0423" y="1" relative="1" as="geometry">
            <mxPoint x="1" y="-26" as="offset" />
          </mxGeometry>
        </mxCell>
        <mxCell id="-JHPAXgp7mCBz7Q-DRIb-20" value="chunks" style="rounded=1;whiteSpace=wrap;html=1;fillColor=#ffe6cc;strokeColor=#d79b00;" vertex="1" parent="1">
          <mxGeometry x="376" y="256" width="86" height="41" as="geometry" />
        </mxCell>
        <mxCell id="-JHPAXgp7mCBz7Q-DRIb-21" style="edgeStyle=orthogonalEdgeStyle;rounded=0;orthogonalLoop=1;jettySize=auto;html=1;" edge="1" parent="1" source="-JHPAXgp7mCBz7Q-DRIb-23" target="-JHPAXgp7mCBz7Q-DRIb-26">
          <mxGeometry relative="1" as="geometry" />
        </mxCell>
        <mxCell id="-JHPAXgp7mCBz7Q-DRIb-22" value="回复" style="edgeLabel;html=1;align=center;verticalAlign=middle;resizable=0;points=[];" vertex="1" connectable="0" parent="-JHPAXgp7mCBz7Q-DRIb-21">
          <mxGeometry x="0.0469" relative="1" as="geometry">
            <mxPoint x="16" y="-40" as="offset" />
          </mxGeometry>
        </mxCell>
        <mxCell id="-JHPAXgp7mCBz7Q-DRIb-23" value="LLM" style="rounded=1;whiteSpace=wrap;html=1;fillColor=#d5e8d4;strokeColor=#82b366;" vertex="1" parent="1">
          <mxGeometry x="-106" y="256" width="86" height="41" as="geometry" />
        </mxCell>
        <mxCell id="-JHPAXgp7mCBz7Q-DRIb-24" style="edgeStyle=orthogonalEdgeStyle;rounded=0;orthogonalLoop=1;jettySize=auto;html=1;entryX=0;entryY=0.5;entryDx=0;entryDy=0;" edge="1" parent="1" source="-JHPAXgp7mCBz7Q-DRIb-26" target="-JHPAXgp7mCBz7Q-DRIb-14">
          <mxGeometry relative="1" as="geometry" />
        </mxCell>
        <mxCell id="-JHPAXgp7mCBz7Q-DRIb-25" value="提问" style="edgeLabel;html=1;align=center;verticalAlign=middle;resizable=0;points=[];" vertex="1" connectable="0" parent="-JHPAXgp7mCBz7Q-DRIb-24">
          <mxGeometry x="-0.087" relative="1" as="geometry">
            <mxPoint x="-3" y="-10" as="offset" />
          </mxGeometry>
        </mxCell>
        <mxCell id="-JHPAXgp7mCBz7Q-DRIb-26" value="" style="shape=umlActor;verticalLabelPosition=bottom;verticalAlign=top;html=1;outlineConnect=0;" vertex="1" parent="1">
          <mxGeometry x="-198" y="108.5" width="31" height="43" as="geometry" />
        </mxCell>
        <mxCell id="-JHPAXgp7mCBz7Q-DRIb-27" value="" style="endArrow=none;dashed=1;html=1;dashPattern=1 3;strokeWidth=2;rounded=0;" edge="1" parent="1">
          <mxGeometry width="50" height="50" relative="1" as="geometry">
            <mxPoint x="-183" y="42.5" as="sourcePoint" />
            <mxPoint x="502" y="42.5" as="targetPoint" />
          </mxGeometry>
        </mxCell>
        <mxCell id="-JHPAXgp7mCBz7Q-DRIb-28" value="训练阶段" style="text;html=1;align=center;verticalAlign=middle;resizable=0;points=[];autosize=1;strokeColor=none;fillColor=none;" vertex="1" parent="1">
          <mxGeometry x="-182" y="15.5" width="66" height="26" as="geometry" />
        </mxCell>
        <mxCell id="-JHPAXgp7mCBz7Q-DRIb-29" value="推理阶段" style="text;html=1;align=center;verticalAlign=middle;resizable=0;points=[];autosize=1;strokeColor=none;fillColor=none;" vertex="1" parent="1">
          <mxGeometry x="-182" y="43.5" width="66" height="26" as="geometry" />
        </mxCell>
        <mxCell id="-JHPAXgp7mCBz7Q-DRIb-60" style="edgeStyle=orthogonalEdgeStyle;rounded=0;orthogonalLoop=1;jettySize=auto;html=1;entryX=1;entryY=0.5;entryDx=0;entryDy=0;" edge="1" parent="1" source="-JHPAXgp7mCBz7Q-DRIb-30" target="-JHPAXgp7mCBz7Q-DRIb-57">
          <mxGeometry relative="1" as="geometry">
            <Array as="points">
              <mxPoint x="521" y="-116" />
              <mxPoint x="521" y="347" />
            </Array>
          </mxGeometry>
        </mxCell>
        <mxCell id="-JHPAXgp7mCBz7Q-DRIb-30" value="ElasticSearch" style="rounded=1;whiteSpace=wrap;html=1;fillColor=#f5f5f5;strokeColor=#666666;fontColor=#333333;" vertex="1" parent="1">
          <mxGeometry x="376" y="-137" width="86" height="41" as="geometry" />
        </mxCell>
        <mxCell id="-JHPAXgp7mCBz7Q-DRIb-33" style="edgeStyle=orthogonalEdgeStyle;rounded=0;orthogonalLoop=1;jettySize=auto;html=1;" edge="1" parent="1" source="-JHPAXgp7mCBz7Q-DRIb-31" target="-JHPAXgp7mCBz7Q-DRIb-32">
          <mxGeometry relative="1" as="geometry" />
        </mxCell>
        <mxCell id="-JHPAXgp7mCBz7Q-DRIb-35" value="爬取" style="edgeLabel;html=1;align=center;verticalAlign=middle;resizable=0;points=[];" vertex="1" connectable="0" parent="-JHPAXgp7mCBz7Q-DRIb-33">
          <mxGeometry x="-0.1746" relative="1" as="geometry">
            <mxPoint y="-11" as="offset" />
          </mxGeometry>
        </mxCell>
        <mxCell id="-JHPAXgp7mCBz7Q-DRIb-31" value="网页" style="rounded=1;whiteSpace=wrap;html=1;fillColor=#ffe6cc;strokeColor=#d79b00;" vertex="1" parent="1">
          <mxGeometry x="70" y="-137" width="86" height="41" as="geometry" />
        </mxCell>
        <mxCell id="-JHPAXgp7mCBz7Q-DRIb-34" style="edgeStyle=orthogonalEdgeStyle;rounded=0;orthogonalLoop=1;jettySize=auto;html=1;entryX=0;entryY=0.5;entryDx=0;entryDy=0;" edge="1" parent="1" source="-JHPAXgp7mCBz7Q-DRIb-32" target="-JHPAXgp7mCBz7Q-DRIb-30">
          <mxGeometry relative="1" as="geometry" />
        </mxCell>
        <mxCell id="-JHPAXgp7mCBz7Q-DRIb-32" value="文本" style="rounded=1;whiteSpace=wrap;html=1;fillColor=#ffe6cc;strokeColor=#d79b00;" vertex="1" parent="1">
          <mxGeometry x="219" y="-137" width="86" height="41" as="geometry" />
        </mxCell>
        <mxCell id="-JHPAXgp7mCBz7Q-DRIb-36" style="edgeStyle=orthogonalEdgeStyle;rounded=0;orthogonalLoop=1;jettySize=auto;html=1;entryX=0;entryY=0.5;entryDx=0;entryDy=0;entryPerimeter=0;" edge="1" parent="1" source="-JHPAXgp7mCBz7Q-DRIb-32" target="-JHPAXgp7mCBz7Q-DRIb-10">
          <mxGeometry relative="1" as="geometry">
            <Array as="points">
              <mxPoint x="334" y="-116" />
              <mxPoint x="334" y="-15" />
            </Array>
          </mxGeometry>
        </mxCell>
        <mxCell id="-JHPAXgp7mCBz7Q-DRIb-37" value="过滤筛选" style="edgeLabel;html=1;align=center;verticalAlign=middle;resizable=0;points=[];" vertex="1" connectable="0" parent="-JHPAXgp7mCBz7Q-DRIb-36">
          <mxGeometry x="-0.7844" y="-1" relative="1" as="geometry">
            <mxPoint x="10" y="-14" as="offset" />
          </mxGeometry>
        </mxCell>
        <mxCell id="-JHPAXgp7mCBz7Q-DRIb-45" value="向量化" style="edgeLabel;html=1;align=center;verticalAlign=middle;resizable=0;points=[];" vertex="1" connectable="0" parent="-JHPAXgp7mCBz7Q-DRIb-36">
          <mxGeometry x="-0.159" y="1" relative="1" as="geometry">
            <mxPoint x="21" y="2" as="offset" />
          </mxGeometry>
        </mxCell>
        <mxCell id="-JHPAXgp7mCBz7Q-DRIb-59" style="edgeStyle=orthogonalEdgeStyle;rounded=0;orthogonalLoop=1;jettySize=auto;html=1;entryX=1;entryY=0.5;entryDx=0;entryDy=0;" edge="1" parent="1" source="-JHPAXgp7mCBz7Q-DRIb-38" target="-JHPAXgp7mCBz7Q-DRIb-57">
          <mxGeometry relative="1" as="geometry">
            <Array as="points">
              <mxPoint x="521" y="-198" />
              <mxPoint x="521" y="347" />
            </Array>
          </mxGeometry>
        </mxCell>
        <mxCell id="-JHPAXgp7mCBz7Q-DRIb-62" value="根据用户特征信息检索" style="edgeLabel;html=1;align=center;verticalAlign=middle;resizable=0;points=[];" vertex="1" connectable="0" parent="-JHPAXgp7mCBz7Q-DRIb-59">
          <mxGeometry x="0.7767" relative="1" as="geometry">
            <mxPoint y="-11" as="offset" />
          </mxGeometry>
        </mxCell>
        <mxCell id="-JHPAXgp7mCBz7Q-DRIb-38" value="MySQL" style="rounded=1;whiteSpace=wrap;html=1;fillColor=#f5f5f5;strokeColor=#666666;fontColor=#333333;" vertex="1" parent="1">
          <mxGeometry x="376" y="-219" width="86" height="41" as="geometry" />
        </mxCell>
        <mxCell id="-JHPAXgp7mCBz7Q-DRIb-41" style="edgeStyle=orthogonalEdgeStyle;rounded=0;orthogonalLoop=1;jettySize=auto;html=1;entryX=0;entryY=0.5;entryDx=0;entryDy=0;" edge="1" parent="1" source="-JHPAXgp7mCBz7Q-DRIb-39" target="-JHPAXgp7mCBz7Q-DRIb-40">
          <mxGeometry relative="1" as="geometry" />
        </mxCell>
        <mxCell id="-JHPAXgp7mCBz7Q-DRIb-43" value="过滤" style="edgeLabel;html=1;align=center;verticalAlign=middle;resizable=0;points=[];" vertex="1" connectable="0" parent="-JHPAXgp7mCBz7Q-DRIb-41">
          <mxGeometry x="-0.2381" y="-1" relative="1" as="geometry">
            <mxPoint x="2" y="-10" as="offset" />
          </mxGeometry>
        </mxCell>
        <mxCell id="-JHPAXgp7mCBz7Q-DRIb-39" value="业务信息" style="rounded=1;whiteSpace=wrap;html=1;fillColor=#ffe6cc;strokeColor=#d79b00;" vertex="1" parent="1">
          <mxGeometry x="70" y="-219" width="86" height="41" as="geometry" />
        </mxCell>
        <mxCell id="-JHPAXgp7mCBz7Q-DRIb-42" style="edgeStyle=orthogonalEdgeStyle;rounded=0;orthogonalLoop=1;jettySize=auto;html=1;entryX=0;entryY=0.5;entryDx=0;entryDy=0;" edge="1" parent="1" source="-JHPAXgp7mCBz7Q-DRIb-40" target="-JHPAXgp7mCBz7Q-DRIb-38">
          <mxGeometry relative="1" as="geometry" />
        </mxCell>
        <mxCell id="-JHPAXgp7mCBz7Q-DRIb-44" value="存储" style="edgeLabel;html=1;align=center;verticalAlign=middle;resizable=0;points=[];" vertex="1" connectable="0" parent="-JHPAXgp7mCBz7Q-DRIb-42">
          <mxGeometry x="-0.1831" y="-2" relative="1" as="geometry">
            <mxPoint y="-12" as="offset" />
          </mxGeometry>
        </mxCell>
        <mxCell id="-JHPAXgp7mCBz7Q-DRIb-40" value="结构化数据" style="rounded=1;whiteSpace=wrap;html=1;fillColor=#ffe6cc;strokeColor=#d79b00;" vertex="1" parent="1">
          <mxGeometry x="219" y="-219" width="86" height="41" as="geometry" />
        </mxCell>
        <mxCell id="-JHPAXgp7mCBz7Q-DRIb-46" value="意图识别" style="rounded=1;whiteSpace=wrap;html=1;fillColor=#dae8fc;strokeColor=#6c8ebf;" vertex="1" parent="1">
          <mxGeometry x="256" y="79" width="86" height="25.5" as="geometry" />
        </mxCell>
        <mxCell id="-JHPAXgp7mCBz7Q-DRIb-71" style="edgeStyle=orthogonalEdgeStyle;rounded=0;orthogonalLoop=1;jettySize=auto;html=1;" edge="1" parent="1" source="-JHPAXgp7mCBz7Q-DRIb-47" target="-JHPAXgp7mCBz7Q-DRIb-10">
          <mxGeometry relative="1" as="geometry" />
        </mxCell>
        <mxCell id="-JHPAXgp7mCBz7Q-DRIb-47" value="关键字抽取" style="rounded=1;whiteSpace=wrap;html=1;fillColor=#dae8fc;strokeColor=#6c8ebf;" vertex="1" parent="1">
          <mxGeometry x="256" y="116.5" width="86" height="25.5" as="geometry" />
        </mxCell>
        <mxCell id="-JHPAXgp7mCBz7Q-DRIb-48" value="问题重写" style="rounded=1;whiteSpace=wrap;html=1;fillColor=#dae8fc;strokeColor=#6c8ebf;" vertex="1" parent="1">
          <mxGeometry x="256" y="151" width="86" height="25.5" as="geometry" />
        </mxCell>
        <mxCell id="-JHPAXgp7mCBz7Q-DRIb-53" style="edgeStyle=orthogonalEdgeStyle;rounded=0;orthogonalLoop=1;jettySize=auto;html=1;entryX=1;entryY=0.5;entryDx=0;entryDy=0;" edge="1" parent="1" source="-JHPAXgp7mCBz7Q-DRIb-49" target="-JHPAXgp7mCBz7Q-DRIb-18">
          <mxGeometry relative="1" as="geometry" />
        </mxCell>
        <mxCell id="-JHPAXgp7mCBz7Q-DRIb-49" value="chunks" style="rounded=1;whiteSpace=wrap;html=1;fillColor=#fff2cc;strokeColor=#d6b656;" vertex="1" parent="1">
          <mxGeometry x="219" y="256" width="86" height="41" as="geometry" />
        </mxCell>
        <mxCell id="-JHPAXgp7mCBz7Q-DRIb-58" style="edgeStyle=orthogonalEdgeStyle;rounded=0;orthogonalLoop=1;jettySize=auto;html=1;" edge="1" parent="1" source="-JHPAXgp7mCBz7Q-DRIb-57" target="-JHPAXgp7mCBz7Q-DRIb-18">
          <mxGeometry relative="1" as="geometry" />
        </mxCell>
        <mxCell id="-JHPAXgp7mCBz7Q-DRIb-57" value="结构化数据" style="rounded=1;whiteSpace=wrap;html=1;fillColor=#fff2cc;strokeColor=#d6b656;" vertex="1" parent="1">
          <mxGeometry x="224" y="326" width="86" height="41" as="geometry" />
        </mxCell>
        <mxCell id="-JHPAXgp7mCBz7Q-DRIb-68" style="edgeStyle=orthogonalEdgeStyle;rounded=0;orthogonalLoop=1;jettySize=auto;html=1;entryX=0;entryY=0.5;entryDx=0;entryDy=0;" edge="1" parent="1" source="-JHPAXgp7mCBz7Q-DRIb-63" target="-JHPAXgp7mCBz7Q-DRIb-46">
          <mxGeometry relative="1" as="geometry" />
        </mxCell>
        <mxCell id="-JHPAXgp7mCBz7Q-DRIb-69" style="edgeStyle=orthogonalEdgeStyle;rounded=0;orthogonalLoop=1;jettySize=auto;html=1;entryX=0;entryY=0.5;entryDx=0;entryDy=0;" edge="1" parent="1" source="-JHPAXgp7mCBz7Q-DRIb-63" target="-JHPAXgp7mCBz7Q-DRIb-47">
          <mxGeometry relative="1" as="geometry" />
        </mxCell>
        <mxCell id="-JHPAXgp7mCBz7Q-DRIb-70" style="edgeStyle=orthogonalEdgeStyle;rounded=0;orthogonalLoop=1;jettySize=auto;html=1;entryX=0;entryY=0.5;entryDx=0;entryDy=0;" edge="1" parent="1" source="-JHPAXgp7mCBz7Q-DRIb-63" target="-JHPAXgp7mCBz7Q-DRIb-48">
          <mxGeometry relative="1" as="geometry" />
        </mxCell>
        <mxCell id="-JHPAXgp7mCBz7Q-DRIb-63" value="缓存" style="rounded=1;whiteSpace=wrap;html=1;fillColor=#dae8fc;strokeColor=#6c8ebf;" vertex="1" parent="1">
          <mxGeometry x="68" y="109.5" width="86" height="41" as="geometry" />
        </mxCell>
        <mxCell id="-JHPAXgp7mCBz7Q-DRIb-72" style="edgeStyle=orthogonalEdgeStyle;rounded=0;orthogonalLoop=1;jettySize=auto;html=1;entryX=0.5;entryY=1;entryDx=0;entryDy=0;entryPerimeter=0;" edge="1" parent="1" source="-JHPAXgp7mCBz7Q-DRIb-46" target="-JHPAXgp7mCBz7Q-DRIb-10">
          <mxGeometry relative="1" as="geometry" />
        </mxCell>
        <mxCell id="-JHPAXgp7mCBz7Q-DRIb-73" style="edgeStyle=orthogonalEdgeStyle;rounded=0;orthogonalLoop=1;jettySize=auto;html=1;entryX=0.5;entryY=1;entryDx=0;entryDy=0;entryPerimeter=0;" edge="1" parent="1" source="-JHPAXgp7mCBz7Q-DRIb-48" target="-JHPAXgp7mCBz7Q-DRIb-10">
          <mxGeometry relative="1" as="geometry" />
        </mxCell>
        <mxCell id="-JHPAXgp7mCBz7Q-DRIb-74" value="向量化" style="edgeLabel;html=1;align=center;verticalAlign=middle;resizable=0;points=[];" vertex="1" connectable="0" parent="-JHPAXgp7mCBz7Q-DRIb-73">
          <mxGeometry x="0.6339" y="-1" relative="1" as="geometry">
            <mxPoint as="offset" />
          </mxGeometry>
        </mxCell>
        <mxCell id="-JHPAXgp7mCBz7Q-DRIb-78" style="edgeStyle=orthogonalEdgeStyle;rounded=0;orthogonalLoop=1;jettySize=auto;html=1;entryX=0.5;entryY=1;entryDx=0;entryDy=0;" edge="1" parent="1" source="-JHPAXgp7mCBz7Q-DRIb-75" target="-JHPAXgp7mCBz7Q-DRIb-18">
          <mxGeometry relative="1" as="geometry" />
        </mxCell>
        <mxCell id="-JHPAXgp7mCBz7Q-DRIb-75" value="外部数据" style="rounded=1;whiteSpace=wrap;html=1;fillColor=#fff2cc;strokeColor=#d6b656;" vertex="1" parent="1">
          <mxGeometry x="227" y="390" width="86" height="41" as="geometry" />
        </mxCell>
        <mxCell id="-JHPAXgp7mCBz7Q-DRIb-77" style="edgeStyle=orthogonalEdgeStyle;rounded=0;orthogonalLoop=1;jettySize=auto;html=1;entryX=1;entryY=0.5;entryDx=0;entryDy=0;" edge="1" parent="1" source="-JHPAXgp7mCBz7Q-DRIb-76" target="-JHPAXgp7mCBz7Q-DRIb-75">
          <mxGeometry relative="1" as="geometry" />
        </mxCell>
        <mxCell id="-JHPAXgp7mCBz7Q-DRIb-76" value="工具调用" style="rounded=1;whiteSpace=wrap;html=1;fillColor=#f5f5f5;strokeColor=#666666;fontColor=#333333;" vertex="1" parent="1">
          <mxGeometry x="376" y="390" width="86" height="41" as="geometry" />
        </mxCell>
      </root>
    </mxGraphModel>
  </diagram>
  <diagram id="q1QXHAyCpKoEv4FfyJZd" name="大语言模型幻觉">
    <mxGraphModel grid="0" page="0" gridSize="10" guides="1" tooltips="1" connect="1" arrows="1" fold="1" pageScale="1" pageWidth="827" pageHeight="1169" math="0" shadow="0">
      <root>
        <mxCell id="0" />
        <mxCell id="1" parent="0" />
        <mxCell id="q5vukwMEsnoP4cpJ9Yc9-15" value="" style="rounded=0;whiteSpace=wrap;html=1;dashed=1;" vertex="1" parent="1">
          <mxGeometry x="289" y="96.75" width="275" height="201.5" as="geometry" />
        </mxCell>
        <mxCell id="q5vukwMEsnoP4cpJ9Yc9-6" style="edgeStyle=orthogonalEdgeStyle;rounded=0;orthogonalLoop=1;jettySize=auto;html=1;entryX=0;entryY=0.5;entryDx=0;entryDy=0;" edge="1" parent="1" source="q5vukwMEsnoP4cpJ9Yc9-1" target="q5vukwMEsnoP4cpJ9Yc9-2">
          <mxGeometry relative="1" as="geometry" />
        </mxCell>
        <mxCell id="q5vukwMEsnoP4cpJ9Yc9-7" style="edgeStyle=orthogonalEdgeStyle;rounded=0;orthogonalLoop=1;jettySize=auto;html=1;entryX=0;entryY=0.5;entryDx=0;entryDy=0;" edge="1" parent="1" source="q5vukwMEsnoP4cpJ9Yc9-1" target="q5vukwMEsnoP4cpJ9Yc9-3">
          <mxGeometry relative="1" as="geometry" />
        </mxCell>
        <mxCell id="q5vukwMEsnoP4cpJ9Yc9-8" style="edgeStyle=orthogonalEdgeStyle;rounded=0;orthogonalLoop=1;jettySize=auto;html=1;entryX=0;entryY=0.5;entryDx=0;entryDy=0;" edge="1" parent="1" source="q5vukwMEsnoP4cpJ9Yc9-1" target="q5vukwMEsnoP4cpJ9Yc9-4">
          <mxGeometry relative="1" as="geometry" />
        </mxCell>
        <mxCell id="q5vukwMEsnoP4cpJ9Yc9-9" style="edgeStyle=orthogonalEdgeStyle;rounded=0;orthogonalLoop=1;jettySize=auto;html=1;entryX=0;entryY=0.5;entryDx=0;entryDy=0;" edge="1" parent="1" source="q5vukwMEsnoP4cpJ9Yc9-1" target="q5vukwMEsnoP4cpJ9Yc9-5">
          <mxGeometry relative="1" as="geometry" />
        </mxCell>
        <mxCell id="q5vukwMEsnoP4cpJ9Yc9-10" value="what" style="edgeLabel;html=1;align=center;verticalAlign=middle;resizable=0;points=[];" vertex="1" connectable="0" parent="q5vukwMEsnoP4cpJ9Yc9-9">
          <mxGeometry x="-0.7438" relative="1" as="geometry">
            <mxPoint x="1" y="-12" as="offset" />
          </mxGeometry>
        </mxCell>
        <mxCell id="q5vukwMEsnoP4cpJ9Yc9-1" value="大语言模型幻觉" style="rounded=1;whiteSpace=wrap;html=1;fillColor=#f8cecc;strokeColor=#b85450;" vertex="1" parent="1">
          <mxGeometry x="-238" y="156" width="126" height="83" as="geometry" />
        </mxCell>
        <mxCell id="q5vukwMEsnoP4cpJ9Yc9-2" value="上下文矛盾" style="rounded=1;whiteSpace=wrap;html=1;fillColor=#fff2cc;strokeColor=#d6b656;" vertex="1" parent="1">
          <mxGeometry x="87" y="73" width="104" height="46" as="geometry" />
        </mxCell>
        <mxCell id="q5vukwMEsnoP4cpJ9Yc9-3" value="与prompt&lt;div&gt;要求不一致&lt;/div&gt;" style="rounded=1;whiteSpace=wrap;html=1;fillColor=#fff2cc;strokeColor=#d6b656;" vertex="1" parent="1">
          <mxGeometry x="87" y="142" width="104" height="46" as="geometry" />
        </mxCell>
        <mxCell id="q5vukwMEsnoP4cpJ9Yc9-4" value="与事实不符" style="rounded=1;whiteSpace=wrap;html=1;fillColor=#fff2cc;strokeColor=#d6b656;" vertex="1" parent="1">
          <mxGeometry x="87" y="211" width="104" height="46" as="geometry" />
        </mxCell>
        <mxCell id="q5vukwMEsnoP4cpJ9Yc9-5" value="荒谬回复" style="rounded=1;whiteSpace=wrap;html=1;fillColor=#fff2cc;strokeColor=#d6b656;" vertex="1" parent="1">
          <mxGeometry x="87" y="280" width="104" height="46" as="geometry" />
        </mxCell>
        <mxCell id="q5vukwMEsnoP4cpJ9Yc9-11" value="数据质量差" style="ellipse;whiteSpace=wrap;html=1;" vertex="1" parent="1">
          <mxGeometry x="322" y="127" width="90" height="53" as="geometry" />
        </mxCell>
        <mxCell id="q5vukwMEsnoP4cpJ9Yc9-12" value="训练过拟合" style="ellipse;whiteSpace=wrap;html=1;" vertex="1" parent="1">
          <mxGeometry x="442" y="132.25" width="90" height="53" as="geometry" />
        </mxCell>
        <mxCell id="q5vukwMEsnoP4cpJ9Yc9-13" value="token生成的&lt;div&gt;随机性&lt;/div&gt;" style="ellipse;whiteSpace=wrap;html=1;" vertex="1" parent="1">
          <mxGeometry x="322" y="200" width="90" height="53" as="geometry" />
        </mxCell>
        <mxCell id="q5vukwMEsnoP4cpJ9Yc9-16" value="why 幻觉 ？" style="text;html=1;align=center;verticalAlign=middle;resizable=0;points=[];autosize=1;strokeColor=none;fillColor=none;" vertex="1" parent="1">
          <mxGeometry x="399" y="272.25" width="82" height="26" as="geometry" />
        </mxCell>
        <mxCell id="q5vukwMEsnoP4cpJ9Yc9-17" value="问题歧义" style="ellipse;whiteSpace=wrap;html=1;" vertex="1" parent="1">
          <mxGeometry x="442" y="200" width="90" height="53" as="geometry" />
        </mxCell>
      </root>
    </mxGraphModel>
  </diagram>
  <diagram id="jq5206qK_xtyo5KrBmF3" name="第 4 页">
    <mxGraphModel dx="1834" dy="675" grid="0" gridSize="10" guides="1" tooltips="1" connect="1" arrows="1" fold="1" page="0" pageScale="1" pageWidth="827" pageHeight="1169" math="0" shadow="0">
      <root>
        <mxCell id="0" />
        <mxCell id="1" parent="0" />
        <mxCell id="BOKysHhaG1PL_E7PfOcH-3" style="edgeStyle=orthogonalEdgeStyle;rounded=0;orthogonalLoop=1;jettySize=auto;html=1;entryX=0;entryY=0.5;entryDx=0;entryDy=0;" edge="1" parent="1" source="BOKysHhaG1PL_E7PfOcH-1" target="BOKysHhaG1PL_E7PfOcH-2">
          <mxGeometry relative="1" as="geometry" />
        </mxCell>
        <mxCell id="BOKysHhaG1PL_E7PfOcH-1" value="文档&lt;div&gt;数据&lt;/div&gt;" style="rounded=1;whiteSpace=wrap;html=1;fillColor=#f5f5f5;fontColor=#333333;strokeColor=#666666;" vertex="1" parent="1">
          <mxGeometry x="-140" y="113" width="97" height="47" as="geometry" />
        </mxCell>
        <mxCell id="BOKysHhaG1PL_E7PfOcH-8" style="edgeStyle=orthogonalEdgeStyle;rounded=0;orthogonalLoop=1;jettySize=auto;html=1;entryX=0.5;entryY=0;entryDx=0;entryDy=0;" edge="1" parent="1" source="BOKysHhaG1PL_E7PfOcH-2" target="BOKysHhaG1PL_E7PfOcH-7">
          <mxGeometry relative="1" as="geometry" />
        </mxCell>
        <mxCell id="BOKysHhaG1PL_E7PfOcH-2" value="LLM" style="ellipse;whiteSpace=wrap;html=1;fillColor=#e1d5e7;strokeColor=#9673a6;" vertex="1" parent="1">
          <mxGeometry x="46" y="103" width="96" height="67" as="geometry" />
        </mxCell>
        <mxCell id="BOKysHhaG1PL_E7PfOcH-5" style="rounded=0;orthogonalLoop=1;jettySize=auto;html=1;entryX=0;entryY=1;entryDx=0;entryDy=0;" edge="1" parent="1" source="BOKysHhaG1PL_E7PfOcH-4" target="BOKysHhaG1PL_E7PfOcH-2">
          <mxGeometry relative="1" as="geometry" />
        </mxCell>
        <mxCell id="BOKysHhaG1PL_E7PfOcH-6" value="问题" style="edgeLabel;html=1;align=center;verticalAlign=middle;resizable=0;points=[];" vertex="1" connectable="0" parent="BOKysHhaG1PL_E7PfOcH-5">
          <mxGeometry x="-0.4115" y="-1" relative="1" as="geometry">
            <mxPoint x="15" y="-22" as="offset" />
          </mxGeometry>
        </mxCell>
        <mxCell id="BOKysHhaG1PL_E7PfOcH-4" value="" style="shape=umlActor;verticalLabelPosition=bottom;verticalAlign=top;html=1;outlineConnect=0;fillColor=#f5f5f5;fontColor=#333333;strokeColor=#666666;" vertex="1" parent="1">
          <mxGeometry x="-103" y="225" width="35" height="55" as="geometry" />
        </mxCell>
        <mxCell id="BOKysHhaG1PL_E7PfOcH-21" style="edgeStyle=orthogonalEdgeStyle;rounded=0;orthogonalLoop=1;jettySize=auto;html=1;" edge="1" parent="1" source="BOKysHhaG1PL_E7PfOcH-7" target="BOKysHhaG1PL_E7PfOcH-11">
          <mxGeometry relative="1" as="geometry" />
        </mxCell>
        <mxCell id="BOKysHhaG1PL_E7PfOcH-22" style="edgeStyle=orthogonalEdgeStyle;rounded=0;orthogonalLoop=1;jettySize=auto;html=1;entryX=0;entryY=0.5;entryDx=0;entryDy=0;" edge="1" parent="1" source="BOKysHhaG1PL_E7PfOcH-7" target="BOKysHhaG1PL_E7PfOcH-10">
          <mxGeometry relative="1" as="geometry" />
        </mxCell>
        <mxCell id="BOKysHhaG1PL_E7PfOcH-23" style="edgeStyle=orthogonalEdgeStyle;rounded=0;orthogonalLoop=1;jettySize=auto;html=1;entryX=0;entryY=0.5;entryDx=0;entryDy=0;" edge="1" parent="1" source="BOKysHhaG1PL_E7PfOcH-7" target="BOKysHhaG1PL_E7PfOcH-9">
          <mxGeometry relative="1" as="geometry" />
        </mxCell>
        <mxCell id="BOKysHhaG1PL_E7PfOcH-24" value="原因&lt;div&gt;分析&lt;/div&gt;" style="edgeLabel;html=1;align=center;verticalAlign=middle;resizable=0;points=[];" vertex="1" connectable="0" parent="BOKysHhaG1PL_E7PfOcH-23">
          <mxGeometry x="-0.7625" y="3" relative="1" as="geometry">
            <mxPoint x="2" y="-13" as="offset" />
          </mxGeometry>
        </mxCell>
        <mxCell id="BOKysHhaG1PL_E7PfOcH-7" value="回复错误" style="rounded=1;whiteSpace=wrap;html=1;fillColor=#ffe6cc;strokeColor=#d79b00;" vertex="1" parent="1">
          <mxGeometry x="42" y="247" width="104" height="33" as="geometry" />
        </mxCell>
        <mxCell id="BOKysHhaG1PL_E7PfOcH-19" style="edgeStyle=orthogonalEdgeStyle;rounded=0;orthogonalLoop=1;jettySize=auto;html=1;entryX=0;entryY=0.5;entryDx=0;entryDy=0;" edge="1" parent="1" source="BOKysHhaG1PL_E7PfOcH-9" target="BOKysHhaG1PL_E7PfOcH-18">
          <mxGeometry relative="1" as="geometry" />
        </mxCell>
        <mxCell id="BOKysHhaG1PL_E7PfOcH-20" value="问题描述&lt;div&gt;清晰&lt;/div&gt;" style="edgeLabel;html=1;align=center;verticalAlign=middle;resizable=0;points=[];" vertex="1" connectable="0" parent="BOKysHhaG1PL_E7PfOcH-19">
          <mxGeometry x="-0.1538" y="-2" relative="1" as="geometry">
            <mxPoint x="-1" y="-18" as="offset" />
          </mxGeometry>
        </mxCell>
        <mxCell id="BOKysHhaG1PL_E7PfOcH-9" value="没有问清楚" style="rounded=1;whiteSpace=wrap;html=1;fillColor=#f8cecc;strokeColor=#b85450;" vertex="1" parent="1">
          <mxGeometry x="287" y="127" width="104" height="33" as="geometry" />
        </mxCell>
        <mxCell id="BOKysHhaG1PL_E7PfOcH-16" style="edgeStyle=orthogonalEdgeStyle;rounded=0;orthogonalLoop=1;jettySize=auto;html=1;entryX=0;entryY=0.5;entryDx=0;entryDy=0;" edge="1" parent="1" source="BOKysHhaG1PL_E7PfOcH-10" target="BOKysHhaG1PL_E7PfOcH-15">
          <mxGeometry relative="1" as="geometry" />
        </mxCell>
        <mxCell id="BOKysHhaG1PL_E7PfOcH-17" value="补充知识" style="edgeLabel;html=1;align=center;verticalAlign=middle;resizable=0;points=[];" vertex="1" connectable="0" parent="BOKysHhaG1PL_E7PfOcH-16">
          <mxGeometry x="-0.3077" y="-1" relative="1" as="geometry">
            <mxPoint x="6" y="-13" as="offset" />
          </mxGeometry>
        </mxCell>
        <mxCell id="BOKysHhaG1PL_E7PfOcH-10" value="知识欠缺" style="rounded=1;whiteSpace=wrap;html=1;fillColor=#f8cecc;strokeColor=#b85450;" vertex="1" parent="1">
          <mxGeometry x="287" y="187" width="104" height="33" as="geometry" />
        </mxCell>
        <mxCell id="BOKysHhaG1PL_E7PfOcH-13" style="edgeStyle=orthogonalEdgeStyle;rounded=0;orthogonalLoop=1;jettySize=auto;html=1;entryX=0;entryY=0.5;entryDx=0;entryDy=0;" edge="1" parent="1" source="BOKysHhaG1PL_E7PfOcH-11" target="BOKysHhaG1PL_E7PfOcH-12">
          <mxGeometry relative="1" as="geometry" />
        </mxCell>
        <mxCell id="BOKysHhaG1PL_E7PfOcH-14" value="提升能力" style="edgeLabel;html=1;align=center;verticalAlign=middle;resizable=0;points=[];" vertex="1" connectable="0" parent="BOKysHhaG1PL_E7PfOcH-13">
          <mxGeometry x="-0.1358" y="-1" relative="1" as="geometry">
            <mxPoint x="1" y="-14" as="offset" />
          </mxGeometry>
        </mxCell>
        <mxCell id="BOKysHhaG1PL_E7PfOcH-11" value="能力不足" style="rounded=1;whiteSpace=wrap;html=1;fillColor=#f8cecc;strokeColor=#b85450;" vertex="1" parent="1">
          <mxGeometry x="287" y="247" width="104" height="33" as="geometry" />
        </mxCell>
        <mxCell id="BOKysHhaG1PL_E7PfOcH-12" value="微调" style="rounded=1;whiteSpace=wrap;html=1;fillColor=#d5e8d4;strokeColor=#82b366;" vertex="1" parent="1">
          <mxGeometry x="472" y="247" width="104" height="33" as="geometry" />
        </mxCell>
        <mxCell id="BOKysHhaG1PL_E7PfOcH-15" value="RAG" style="rounded=1;whiteSpace=wrap;html=1;fillColor=#d5e8d4;strokeColor=#82b366;" vertex="1" parent="1">
          <mxGeometry x="469" y="187" width="104" height="33" as="geometry" />
        </mxCell>
        <mxCell id="BOKysHhaG1PL_E7PfOcH-18" value="提示工程" style="rounded=1;whiteSpace=wrap;html=1;fillColor=#d5e8d4;strokeColor=#82b366;" vertex="1" parent="1">
          <mxGeometry x="469" y="127" width="104" height="33" as="geometry" />
        </mxCell>
      </root>
    </mxGraphModel>
  </diagram>
</mxfile>
